<svg viewBox="0 0 100 100" fill="none" xmlns="http://www.w3.org/2000/svg">
  <!-- D -->
  <path d="M 25 20 L 25 80 C 45 80 50 65 50 50 C 50 35 45 20 25 20 Z" fill="white" stroke="white" stroke-width="4" stroke-linejoin="round"/>
  
  <!-- & (Ampersand ampersand styling) -->
  <path d="M 52 45 C 52 45 58 35 65 35 70 35 72 40 70 45 L 60 60 L 52 45 Z" fill="none" stroke="#888888" stroke-width="4" stroke-linecap="round"/>
  <path d="M 60 60 C 55 65 55 75 62 75 C 68 75 75 65 82 55" fill="none" stroke="#888888" stroke-width="4" stroke-linecap="round"/>
  
  <!-- S -->
  <path d="M 85 40 C 85 25 70 20 60 30 C 50 40 50 50 65 55 C 80 60 85 70 70 80 C 60 85 55 80 55 80" fill="none" stroke="white" stroke-width="6" stroke-linecap="round" stroke-linejoin="round"/>
</svg>
